%TF.GenerationSoftware,KiCad,Pcbnew,6.0.2-1.fc35*%
%TF.CreationDate,2022-03-30T21:24:33+02:00*%
%TF.ProjectId,dock,646f636b-2e6b-4696-9361-645f70636258,rev?*%
%TF.SameCoordinates,Original*%
%TF.FileFunction,Paste,Top*%
%TF.FilePolarity,Positive*%
%FSLAX46Y46*%
G04 Gerber Fmt 4.6, Leading zero omitted, Abs format (unit mm)*
G04 Created by KiCad (PCBNEW 6.0.2-1.fc35) date 2022-03-30 21:24:33*
%MOMM*%
%LPD*%
G01*
G04 APERTURE LIST*
G04 Aperture macros list*
%AMRoundRect*
0 Rectangle with rounded corners*
0 $1 Rounding radius*
0 $2 $3 $4 $5 $6 $7 $8 $9 X,Y pos of 4 corners*
0 Add a 4 corners polygon primitive as box body*
4,1,4,$2,$3,$4,$5,$6,$7,$8,$9,$2,$3,0*
0 Add four circle primitives for the rounded corners*
1,1,$1+$1,$2,$3*
1,1,$1+$1,$4,$5*
1,1,$1+$1,$6,$7*
1,1,$1+$1,$8,$9*
0 Add four rect primitives between the rounded corners*
20,1,$1+$1,$2,$3,$4,$5,0*
20,1,$1+$1,$4,$5,$6,$7,0*
20,1,$1+$1,$6,$7,$8,$9,0*
20,1,$1+$1,$8,$9,$2,$3,0*%
G04 Aperture macros list end*
%ADD10RoundRect,0.200000X0.275000X-0.200000X0.275000X0.200000X-0.275000X0.200000X-0.275000X-0.200000X0*%
%ADD11RoundRect,0.200000X0.200000X0.275000X-0.200000X0.275000X-0.200000X-0.275000X0.200000X-0.275000X0*%
%ADD12R,0.400000X0.500000*%
%ADD13R,0.300000X0.500000*%
%ADD14R,0.300000X2.600000*%
%ADD15RoundRect,0.225000X0.250000X-0.225000X0.250000X0.225000X-0.250000X0.225000X-0.250000X-0.225000X0*%
%ADD16R,0.300000X1.550000*%
%ADD17R,1.200000X2.750000*%
%ADD18RoundRect,0.200000X-0.275000X0.200000X-0.275000X-0.200000X0.275000X-0.200000X0.275000X0.200000X0*%
%ADD19RoundRect,0.200000X-0.200000X-0.275000X0.200000X-0.275000X0.200000X0.275000X-0.200000X0.275000X0*%
%ADD20R,1.500000X1.500000*%
%ADD21RoundRect,0.140000X-0.140000X-0.170000X0.140000X-0.170000X0.140000X0.170000X-0.140000X0.170000X0*%
%ADD22RoundRect,0.225000X-0.250000X0.225000X-0.250000X-0.225000X0.250000X-0.225000X0.250000X0.225000X0*%
%ADD23RoundRect,0.250000X0.450000X-0.325000X0.450000X0.325000X-0.450000X0.325000X-0.450000X-0.325000X0*%
%ADD24RoundRect,0.150000X0.650000X0.150000X-0.650000X0.150000X-0.650000X-0.150000X0.650000X-0.150000X0*%
%ADD25RoundRect,0.140000X-0.170000X0.140000X-0.170000X-0.140000X0.170000X-0.140000X0.170000X0.140000X0*%
%ADD26RoundRect,0.150000X-0.150000X0.512500X-0.150000X-0.512500X0.150000X-0.512500X0.150000X0.512500X0*%
%ADD27RoundRect,0.218750X0.256250X-0.218750X0.256250X0.218750X-0.256250X0.218750X-0.256250X-0.218750X0*%
%ADD28R,1.400000X1.200000*%
%ADD29RoundRect,0.140000X0.140000X0.170000X-0.140000X0.170000X-0.140000X-0.170000X0.140000X-0.170000X0*%
%ADD30RoundRect,0.225000X-0.225000X-0.250000X0.225000X-0.250000X0.225000X0.250000X-0.225000X0.250000X0*%
%ADD31RoundRect,0.125000X-0.375000X0.125000X-0.375000X-0.125000X0.375000X-0.125000X0.375000X0.125000X0*%
%ADD32RoundRect,0.237500X-0.362500X0.237500X-0.362500X-0.237500X0.362500X-0.237500X0.362500X0.237500X0*%
%ADD33RoundRect,0.218750X0.218750X0.256250X-0.218750X0.256250X-0.218750X-0.256250X0.218750X-0.256250X0*%
%ADD34RoundRect,0.222500X0.222500X-0.222500X0.222500X0.222500X-0.222500X0.222500X-0.222500X-0.222500X0*%
%ADD35RoundRect,0.062500X0.062500X-0.375000X0.062500X0.375000X-0.062500X0.375000X-0.062500X-0.375000X0*%
%ADD36RoundRect,0.062500X0.375000X-0.062500X0.375000X0.062500X-0.375000X0.062500X-0.375000X-0.062500X0*%
%ADD37RoundRect,0.250000X1.500000X0.550000X-1.500000X0.550000X-1.500000X-0.550000X1.500000X-0.550000X0*%
%ADD38RoundRect,0.225000X0.225000X0.250000X-0.225000X0.250000X-0.225000X-0.250000X0.225000X-0.250000X0*%
%ADD39RoundRect,0.250000X-1.500000X-0.550000X1.500000X-0.550000X1.500000X0.550000X-1.500000X0.550000X0*%
G04 APERTURE END LIST*
D10*
%TO.C,R3*%
X128250000Y-154075000D03*
X128250000Y-152425000D03*
%TD*%
D11*
%TO.C,R22*%
X154125000Y-143500000D03*
X152475000Y-143500000D03*
%TD*%
%TO.C,R5*%
X128325000Y-112000000D03*
X126675000Y-112000000D03*
%TD*%
%TO.C,R20*%
X136475000Y-132762500D03*
X134825000Y-132762500D03*
%TD*%
%TO.C,R12*%
X147275000Y-130162500D03*
X145625000Y-130162500D03*
%TD*%
D12*
%TO.C,RN1*%
X151250000Y-119800000D03*
D13*
X151750000Y-119800000D03*
X152250000Y-119800000D03*
D12*
X152750000Y-119800000D03*
X152750000Y-118800000D03*
D13*
X152250000Y-118800000D03*
X151750000Y-118800000D03*
D12*
X151250000Y-118800000D03*
%TD*%
D14*
%TO.C,J9*%
X167250000Y-148750000D03*
X166750000Y-148750000D03*
X166250000Y-148750000D03*
X165750000Y-148750000D03*
X165250000Y-148750000D03*
X164750000Y-148750000D03*
X164250000Y-148750000D03*
X163750000Y-148750000D03*
X163250000Y-148750000D03*
X162750000Y-148750000D03*
X162250000Y-148750000D03*
X161750000Y-148750000D03*
X161250000Y-148750000D03*
X160750000Y-148750000D03*
X160250000Y-148750000D03*
X159750000Y-148750000D03*
X159250000Y-148750000D03*
X158750000Y-148750000D03*
X158250000Y-148750000D03*
%TD*%
D15*
%TO.C,C13*%
X131550000Y-130912500D03*
X131550000Y-129362500D03*
%TD*%
D16*
%TO.C,J2*%
X154550000Y-115675000D03*
X154300000Y-108125000D03*
X154050000Y-115675000D03*
X153800000Y-108125000D03*
X153550000Y-115675000D03*
X153300000Y-108125000D03*
X153050000Y-115675000D03*
X152800000Y-108125000D03*
X152550000Y-115675000D03*
X152300000Y-108125000D03*
X152050000Y-115675000D03*
X149800000Y-108125000D03*
X149550000Y-115675000D03*
X149300000Y-108125000D03*
X149050000Y-115675000D03*
X148800000Y-108125000D03*
X148550000Y-115675000D03*
X148300000Y-108125000D03*
X148050000Y-115675000D03*
X147800000Y-108125000D03*
X147550000Y-115675000D03*
X147300000Y-108125000D03*
X147050000Y-115675000D03*
X146800000Y-108125000D03*
X146550000Y-115675000D03*
X146300000Y-108125000D03*
X146050000Y-115675000D03*
X145800000Y-108125000D03*
X145550000Y-115675000D03*
X145300000Y-108125000D03*
X145050000Y-115675000D03*
X144800000Y-108125000D03*
X144550000Y-115675000D03*
X144300000Y-108125000D03*
X144050000Y-115675000D03*
X143800000Y-108125000D03*
X143550000Y-115675000D03*
X143300000Y-108125000D03*
X143050000Y-115675000D03*
X142800000Y-108125000D03*
X142550000Y-115675000D03*
X142300000Y-108125000D03*
X142050000Y-115675000D03*
X141800000Y-108125000D03*
X141550000Y-115675000D03*
X141300000Y-108125000D03*
X141050000Y-115675000D03*
X140800000Y-108125000D03*
X140550000Y-115675000D03*
X140300000Y-108125000D03*
X140050000Y-115675000D03*
X139800000Y-108125000D03*
X139550000Y-115675000D03*
X139300000Y-108125000D03*
X139050000Y-115675000D03*
X138800000Y-108125000D03*
X138550000Y-115675000D03*
X138300000Y-108125000D03*
X138050000Y-115675000D03*
X137800000Y-108125000D03*
X137550000Y-115675000D03*
X137300000Y-108125000D03*
X137050000Y-115675000D03*
X136800000Y-108125000D03*
X136550000Y-115675000D03*
X136300000Y-108125000D03*
X136050000Y-115675000D03*
D17*
X155650000Y-114900000D03*
X134950000Y-114900000D03*
%TD*%
D18*
%TO.C,R15*%
X114800000Y-151675000D03*
X114800000Y-153325000D03*
%TD*%
D19*
%TO.C,R18*%
X145625000Y-131762500D03*
X147275000Y-131762500D03*
%TD*%
%TO.C,R19*%
X145500000Y-122662500D03*
X147150000Y-122662500D03*
%TD*%
D11*
%TO.C,R10*%
X147275000Y-126962500D03*
X145625000Y-126962500D03*
%TD*%
D12*
%TO.C,RN4*%
X141000000Y-119500000D03*
D13*
X141500000Y-119500000D03*
X142000000Y-119500000D03*
D12*
X142500000Y-119500000D03*
X142500000Y-118500000D03*
D13*
X142000000Y-118500000D03*
X141500000Y-118500000D03*
D12*
X141000000Y-118500000D03*
%TD*%
D20*
%TO.C,SW1*%
X185800000Y-115500000D03*
X185800000Y-107700000D03*
%TD*%
D11*
%TO.C,R6*%
X128325000Y-114500000D03*
X126675000Y-114500000D03*
%TD*%
D19*
%TO.C,R23*%
X135650000Y-138300000D03*
X137300000Y-138300000D03*
%TD*%
D11*
%TO.C,R7*%
X194700000Y-142400000D03*
X193050000Y-142400000D03*
%TD*%
%TO.C,R8*%
X169250000Y-106100000D03*
X167600000Y-106100000D03*
%TD*%
D18*
%TO.C,R4*%
X116400000Y-151575000D03*
X116400000Y-153225000D03*
%TD*%
D12*
%TO.C,RN6*%
X173850000Y-122100000D03*
D13*
X174350000Y-122100000D03*
X174850000Y-122100000D03*
D12*
X175350000Y-122100000D03*
X175350000Y-121100000D03*
D13*
X174850000Y-121100000D03*
X174350000Y-121100000D03*
D12*
X173850000Y-121100000D03*
%TD*%
D21*
%TO.C,C7*%
X145990000Y-125562500D03*
X146950000Y-125562500D03*
%TD*%
D12*
%TO.C,RN5*%
X138500000Y-119500000D03*
D13*
X139000000Y-119500000D03*
X139500000Y-119500000D03*
D12*
X140000000Y-119500000D03*
X140000000Y-118500000D03*
D13*
X139500000Y-118500000D03*
X139000000Y-118500000D03*
D12*
X138500000Y-118500000D03*
%TD*%
D22*
%TO.C,C15*%
X195200000Y-116400000D03*
X195200000Y-117950000D03*
%TD*%
D23*
%TO.C,L1*%
X121750000Y-137275000D03*
X121750000Y-135225000D03*
%TD*%
D24*
%TO.C,U3*%
X156707858Y-127505000D03*
X156707858Y-126235000D03*
X156707858Y-124965000D03*
X156707858Y-123695000D03*
X149507858Y-123695000D03*
X149507858Y-124965000D03*
X149507858Y-126235000D03*
X149507858Y-127505000D03*
%TD*%
D10*
%TO.C,R14*%
X152200000Y-152725000D03*
X152200000Y-151075000D03*
%TD*%
D25*
%TO.C,C8*%
X142950000Y-131882500D03*
X142950000Y-132842500D03*
%TD*%
D12*
%TO.C,RN3*%
X143500000Y-119500000D03*
D13*
X144000000Y-119500000D03*
X144500000Y-119500000D03*
D12*
X145000000Y-119500000D03*
X145000000Y-118500000D03*
D13*
X144500000Y-118500000D03*
X144000000Y-118500000D03*
D12*
X143500000Y-118500000D03*
%TD*%
D15*
%TO.C,C6*%
X200200000Y-136775000D03*
X200200000Y-135225000D03*
%TD*%
D16*
%TO.C,J1*%
X178850000Y-115675000D03*
X178600000Y-108125000D03*
X178350000Y-115675000D03*
X178100000Y-108125000D03*
X177850000Y-115675000D03*
X177600000Y-108125000D03*
X177350000Y-115675000D03*
X177100000Y-108125000D03*
X176850000Y-115675000D03*
X176600000Y-108125000D03*
X176350000Y-115675000D03*
X174100000Y-108125000D03*
X173850000Y-115675000D03*
X173600000Y-108125000D03*
X173350000Y-115675000D03*
X173100000Y-108125000D03*
X172850000Y-115675000D03*
X172600000Y-108125000D03*
X172350000Y-115675000D03*
X172100000Y-108125000D03*
X171850000Y-115675000D03*
X171600000Y-108125000D03*
X171350000Y-115675000D03*
X171100000Y-108125000D03*
X170850000Y-115675000D03*
X170600000Y-108125000D03*
X170350000Y-115675000D03*
X170100000Y-108125000D03*
X169850000Y-115675000D03*
X169600000Y-108125000D03*
X169350000Y-115675000D03*
X169100000Y-108125000D03*
X168850000Y-115675000D03*
X168600000Y-108125000D03*
X168350000Y-115675000D03*
X168100000Y-108125000D03*
X167850000Y-115675000D03*
X167600000Y-108125000D03*
X167350000Y-115675000D03*
X167100000Y-108125000D03*
X166850000Y-115675000D03*
X166600000Y-108125000D03*
X166350000Y-115675000D03*
X166100000Y-108125000D03*
X165850000Y-115675000D03*
X165600000Y-108125000D03*
X165350000Y-115675000D03*
X165100000Y-108125000D03*
X164850000Y-115675000D03*
X164600000Y-108125000D03*
X164350000Y-115675000D03*
X164100000Y-108125000D03*
X163850000Y-115675000D03*
X163600000Y-108125000D03*
X163350000Y-115675000D03*
X163100000Y-108125000D03*
X162850000Y-115675000D03*
X162600000Y-108125000D03*
X162350000Y-115675000D03*
X162100000Y-108125000D03*
X161850000Y-115675000D03*
X161600000Y-108125000D03*
X161350000Y-115675000D03*
X161100000Y-108125000D03*
X160850000Y-115675000D03*
X160600000Y-108125000D03*
X160350000Y-115675000D03*
D17*
X179950000Y-114900000D03*
X159250000Y-114900000D03*
%TD*%
D12*
%TO.C,RN2*%
X148650000Y-119800000D03*
D13*
X149150000Y-119800000D03*
X149650000Y-119800000D03*
D12*
X150150000Y-119800000D03*
X150150000Y-118800000D03*
D13*
X149650000Y-118800000D03*
X149150000Y-118800000D03*
D12*
X148650000Y-118800000D03*
%TD*%
D21*
%TO.C,C10*%
X146070000Y-121262500D03*
X147030000Y-121262500D03*
%TD*%
D11*
%TO.C,R21*%
X154125000Y-141800000D03*
X152475000Y-141800000D03*
%TD*%
D26*
%TO.C,U1*%
X125700000Y-137612500D03*
X124750000Y-137612500D03*
X123800000Y-137612500D03*
X123800000Y-139887500D03*
X125700000Y-139887500D03*
%TD*%
D27*
%TO.C,FB1*%
X119000000Y-148987500D03*
X119000000Y-147412500D03*
%TD*%
D28*
%TO.C,Y1*%
X133450000Y-131012500D03*
X135650000Y-131012500D03*
X135650000Y-129312500D03*
X133450000Y-129312500D03*
%TD*%
D29*
%TO.C,C12*%
X135130000Y-126362500D03*
X134170000Y-126362500D03*
%TD*%
D11*
%TO.C,R26*%
X145725000Y-138300000D03*
X144075000Y-138300000D03*
%TD*%
D25*
%TO.C,C11*%
X139150000Y-132002500D03*
X139150000Y-132962500D03*
%TD*%
D30*
%TO.C,C16*%
X152225000Y-140000000D03*
X153775000Y-140000000D03*
%TD*%
%TO.C,C3*%
X125475000Y-133250000D03*
X127025000Y-133250000D03*
%TD*%
D11*
%TO.C,R25*%
X145725000Y-136700000D03*
X144075000Y-136700000D03*
%TD*%
D31*
%TO.C,U4*%
X200487500Y-119367500D03*
X200487500Y-118267500D03*
X200487500Y-117167500D03*
X200487500Y-116067500D03*
X200487500Y-114967500D03*
X200487500Y-113867500D03*
X200487500Y-112767500D03*
X200487500Y-112067500D03*
X200487500Y-111367500D03*
D32*
X202187500Y-120667500D03*
X206587500Y-120667500D03*
X202187500Y-110467500D03*
X206587500Y-110467500D03*
%TD*%
D19*
%TO.C,R16*%
X145525000Y-124262500D03*
X147175000Y-124262500D03*
%TD*%
D12*
%TO.C,RN7*%
X171100000Y-122100000D03*
D13*
X171600000Y-122100000D03*
X172100000Y-122100000D03*
D12*
X172600000Y-122100000D03*
X172600000Y-121100000D03*
D13*
X172100000Y-121100000D03*
X171600000Y-121100000D03*
D12*
X171100000Y-121100000D03*
%TD*%
D19*
%TO.C,R11*%
X133750000Y-123362500D03*
X135400000Y-123362500D03*
%TD*%
D33*
%TO.C,D1*%
X116287500Y-155500000D03*
X114712500Y-155500000D03*
%TD*%
D19*
%TO.C,R24*%
X135675000Y-136700000D03*
X137325000Y-136700000D03*
%TD*%
%TO.C,R2*%
X127425000Y-135250000D03*
X129075000Y-135250000D03*
%TD*%
D34*
%TO.C,U2*%
X142150000Y-128862500D03*
X141050000Y-128862500D03*
X139950000Y-126662500D03*
X142150000Y-127762500D03*
X141050000Y-127762500D03*
X139950000Y-127762500D03*
X139950000Y-128862500D03*
X142150000Y-126662500D03*
X141050000Y-126662500D03*
D35*
X139300000Y-130200000D03*
X139800000Y-130200000D03*
X140300000Y-130200000D03*
X140800000Y-130200000D03*
X141300000Y-130200000D03*
X141800000Y-130200000D03*
X142300000Y-130200000D03*
X142800000Y-130200000D03*
D36*
X143487500Y-129512500D03*
X143487500Y-129012500D03*
X143487500Y-128512500D03*
X143487500Y-128012500D03*
X143487500Y-127512500D03*
X143487500Y-127012500D03*
X143487500Y-126512500D03*
X143487500Y-126012500D03*
D35*
X142800000Y-125325000D03*
X142300000Y-125325000D03*
X141800000Y-125325000D03*
X141300000Y-125325000D03*
X140800000Y-125325000D03*
X140300000Y-125325000D03*
X139800000Y-125325000D03*
X139300000Y-125325000D03*
D36*
X138612500Y-126012500D03*
X138612500Y-126512500D03*
X138612500Y-127012500D03*
X138612500Y-127512500D03*
X138612500Y-128012500D03*
X138612500Y-128512500D03*
X138612500Y-129012500D03*
X138612500Y-129512500D03*
%TD*%
D30*
%TO.C,C2*%
X123525000Y-141750000D03*
X125075000Y-141750000D03*
%TD*%
D10*
%TO.C,R13*%
X131700000Y-153425000D03*
X131700000Y-151775000D03*
%TD*%
D19*
%TO.C,R17*%
X133725000Y-124962500D03*
X135375000Y-124962500D03*
%TD*%
%TO.C,R9*%
X145625000Y-128562500D03*
X147275000Y-128562500D03*
%TD*%
D30*
%TO.C,C9*%
X149907858Y-129600000D03*
X151457858Y-129600000D03*
%TD*%
D37*
%TO.C,C4*%
X178450000Y-137750000D03*
X173050000Y-137750000D03*
%TD*%
D38*
%TO.C,C14*%
X135400000Y-127662500D03*
X133850000Y-127662500D03*
%TD*%
D39*
%TO.C,C1*%
X122050000Y-146750000D03*
X127450000Y-146750000D03*
%TD*%
D19*
%TO.C,R1*%
X123925000Y-135250000D03*
X125575000Y-135250000D03*
%TD*%
D15*
%TO.C,C5*%
X198600000Y-136775000D03*
X198600000Y-135225000D03*
%TD*%
M02*
