%TF.GenerationSoftware,KiCad,Pcbnew,6.0.2-1.fc35*%
%TF.CreationDate,2022-03-30T21:24:33+02:00*%
%TF.ProjectId,dock,646f636b-2e6b-4696-9361-645f70636258,rev?*%
%TF.SameCoordinates,Original*%
%TF.FileFunction,Soldermask,Bot*%
%TF.FilePolarity,Negative*%
%FSLAX46Y46*%
G04 Gerber Fmt 4.6, Leading zero omitted, Abs format (unit mm)*
G04 Created by KiCad (PCBNEW 6.0.2-1.fc35) date 2022-03-30 21:24:33*
%MOMM*%
%LPD*%
G01*
G04 APERTURE LIST*
%ADD10O,1.500000X2.300000*%
%ADD11O,1.600000X3.300000*%
%ADD12O,1.500000X3.300000*%
%ADD13C,1.150000*%
%ADD14C,1.650000*%
%ADD15C,3.200000*%
%ADD16R,1.524000X1.524000*%
%ADD17C,1.524000*%
%ADD18C,3.500000*%
%ADD19R,1.700000X1.700000*%
%ADD20O,1.700000X1.700000*%
%ADD21C,1.800000*%
%ADD22C,2.000000*%
%ADD23C,6.000000*%
%ADD24C,0.650000*%
%ADD25O,0.900000X1.700000*%
%ADD26O,0.900000X2.400000*%
%ADD27C,3.250000*%
%ADD28R,1.398000X1.398000*%
%ADD29C,1.398000*%
%ADD30C,1.530000*%
%ADD31C,2.445000*%
G04 APERTURE END LIST*
D10*
%TO.C,J9*%
X169750000Y-155500000D03*
X155250000Y-155500000D03*
D11*
X169750000Y-149500000D03*
D12*
X155250000Y-149500000D03*
%TD*%
D13*
%TO.C,J2*%
X155300000Y-110400000D03*
D14*
X135300000Y-110400000D03*
%TD*%
D15*
%TO.C,H4*%
X204000000Y-79000000D03*
%TD*%
D16*
%TO.C,J6*%
X178500000Y-145272500D03*
D17*
X181000000Y-145272500D03*
X183000000Y-145272500D03*
X185500000Y-145272500D03*
D18*
X175430000Y-147982500D03*
X188570000Y-147982500D03*
%TD*%
D19*
%TO.C,J4*%
X179950000Y-77210000D03*
D20*
X179950000Y-79750000D03*
X177410000Y-77210000D03*
X177410000Y-79750000D03*
X174870000Y-77210000D03*
X174870000Y-79750000D03*
X172330000Y-77210000D03*
X172330000Y-79750000D03*
X169790000Y-77210000D03*
X169790000Y-79750000D03*
X167250000Y-77210000D03*
X167250000Y-79750000D03*
X164710000Y-77210000D03*
X164710000Y-79750000D03*
X162170000Y-77210000D03*
X162170000Y-79750000D03*
X159630000Y-77210000D03*
X159630000Y-79750000D03*
X157090000Y-77210000D03*
X157090000Y-79750000D03*
X154550000Y-77210000D03*
X154550000Y-79750000D03*
X152010000Y-77210000D03*
X152010000Y-79750000D03*
X149470000Y-77210000D03*
X149470000Y-79750000D03*
X146930000Y-77210000D03*
X146930000Y-79750000D03*
X144390000Y-77210000D03*
X144390000Y-79750000D03*
X141850000Y-77210000D03*
X141850000Y-79750000D03*
X139310000Y-77210000D03*
X139310000Y-79750000D03*
X136770000Y-77210000D03*
X136770000Y-79750000D03*
X134230000Y-77210000D03*
X134230000Y-79750000D03*
X131690000Y-77210000D03*
X131690000Y-79750000D03*
%TD*%
D21*
%TO.C,J7*%
X199547566Y-147850000D03*
X199547566Y-153750000D03*
D22*
X202747566Y-150250000D03*
X196447566Y-147050000D03*
X202752433Y-147050000D03*
X196447566Y-153750000D03*
X202747566Y-153750000D03*
%TD*%
D14*
%TO.C,J1*%
X159600000Y-110400000D03*
D13*
X179600000Y-110400000D03*
%TD*%
D15*
%TO.C,H5*%
X117000000Y-127000000D03*
%TD*%
D23*
%TO.C,H1*%
X157500000Y-87300000D03*
%TD*%
D15*
%TO.C,H2*%
X117000000Y-79000000D03*
%TD*%
D19*
%TO.C,J5*%
X123825000Y-104400000D03*
D20*
X123825000Y-106940000D03*
X123825000Y-109480000D03*
X123825000Y-112020000D03*
X123825000Y-114560000D03*
X123825000Y-117100000D03*
%TD*%
D24*
%TO.C,J3*%
X119350000Y-151500000D03*
X120200000Y-151500000D03*
X121050000Y-151500000D03*
X121900000Y-151500000D03*
X122750000Y-151500000D03*
X123600000Y-151500000D03*
X124450000Y-151500000D03*
X125300000Y-151500000D03*
X125300000Y-152850000D03*
X124450000Y-152850000D03*
X123600000Y-152850000D03*
X122750000Y-152850000D03*
X121900000Y-152850000D03*
X121050000Y-152850000D03*
X120200000Y-152850000D03*
X119350000Y-152850000D03*
D25*
X126700000Y-155800000D03*
X118050000Y-155800000D03*
D26*
X126700000Y-152400000D03*
X118050000Y-152400000D03*
%TD*%
D27*
%TO.C,J8*%
X147527500Y-150280000D03*
X136097500Y-150280000D03*
D28*
X137362500Y-143930000D03*
D29*
X138632500Y-141390000D03*
X139902500Y-143930000D03*
X141172500Y-141390000D03*
X142442500Y-143930000D03*
X143712500Y-141390000D03*
X144982500Y-143930000D03*
X146252500Y-141390000D03*
D30*
X135187500Y-155180000D03*
X137727500Y-155180000D03*
X145897500Y-155180000D03*
X148437500Y-155180000D03*
D31*
X134067500Y-147230000D03*
X149557500Y-147230000D03*
%TD*%
D15*
%TO.C,H3*%
X204000000Y-127000000D03*
%TD*%
M02*
