M48
; DRILL file {KiCad 6.0.2-1.fc35} date Wed 30 Mar 2022 09:24:33 PM CEST
; FORMAT={-:-/ absolute / inch / decimal}
; #@! TF.CreationDate,2022-03-30T21:24:33+02:00
; #@! TF.GenerationSoftware,Kicad,Pcbnew,6.0.2-1.fc35
; #@! TF.FileFunction,Plated,1,4,PTH
FMAT,2
INCH
; #@! TA.AperFunction,Plated,PTH,ViaDrill
T1C0.0079
; #@! TA.AperFunction,Plated,PTH,ComponentDrill
T2C0.0157
; #@! TA.AperFunction,Plated,PTH,ComponentDrill
T3C0.0236
; #@! TA.AperFunction,Plated,PTH,ComponentDrill
T4C0.0350
; #@! TA.AperFunction,Plated,PTH,ComponentDrill
T5C0.0354
; #@! TA.AperFunction,Plated,PTH,ComponentDrill
T6C0.0362
; #@! TA.AperFunction,Plated,PTH,ComponentDrill
T7C0.0394
; #@! TA.AperFunction,Plated,PTH,ComponentDrill
T8C0.0402
; #@! TA.AperFunction,Plated,PTH,ComponentDrill
T9C0.0551
; #@! TA.AperFunction,Plated,PTH,ComponentDrill
T10C0.0642
; #@! TA.AperFunction,Plated,PTH,ComponentDrill
T11C0.0906
; #@! TA.AperFunction,Plated,PTH,ComponentDrill
T12C0.1457
%
G90
G05
T1
X4.5276Y-3.3465
X4.5276Y-3.5433
X4.5276Y-3.7402
X4.5276Y-3.937
X4.5276Y-4.1339
X4.5276Y-4.3307
X4.5276Y-4.5276
X4.5276Y-4.7244
X4.5276Y-4.9213
X4.5276Y-5.1181
X4.5276Y-5.315
X4.5276Y-5.5118
X4.5276Y-5.7087
X4.5276Y-5.9055
X4.5846Y-6.0738
X4.6299Y-5.9213
X4.7244Y-3.0512
X4.7244Y-6.1024
X4.9134Y-5.3701
X4.9213Y-3.0512
X4.9213Y-6.1024
X4.937Y-6.0709
X4.9685Y-5.5669
X4.9685Y-5.5906
X5.0Y-5.2047
X5.0315Y-5.2126
X5.0551Y-5.9528
X5.0787Y-5.378
X5.1024Y-5.1102
X5.1024Y-5.748
X5.1024Y-5.7717
X5.1024Y-5.7953
X5.1181Y-3.0512
X5.1181Y-5.0236
X5.1496Y-5.1969
X5.1772Y-5.0551
X5.1969Y-5.0
X5.2047Y-5.3622
X5.2165Y-3.3465
X5.2165Y-3.5433
X5.2165Y-3.7402
X5.2165Y-3.937
X5.2165Y-4.1339
X5.2165Y-4.3307
X5.2165Y-4.7244
X5.2165Y-4.9213
X5.2165Y-5.5118
X5.2283Y-5.0276
X5.2323Y-6.0394
X5.2362Y-5.2205
X5.252Y-4.9724
X5.2677Y-4.4882
X5.2677Y-4.5276
X5.2677Y-4.5669
X5.2756Y-5.2205
X5.2756Y-5.3701
X5.3071Y-4.4567
X5.3386Y-3.2835
X5.3543Y-4.6142
X5.3543Y-4.7953
X5.3622Y-3.4724
X5.3976Y-5.1614
X5.4016Y-4.6929
X5.4016Y-5.315
X5.4055Y-5.0615
X5.4134Y-4.9449
X5.4409Y-4.7953
X5.4449Y-4.6142
X5.4488Y-4.8346
X5.4567Y-4.874
X5.4567Y-4.9252
X5.4646Y-5.378
X5.4646Y-5.7559
X5.4764Y-5.2638
X5.4803Y-4.622
X5.4803Y-4.7559
X5.486Y-4.8937
X5.4921Y-4.811
X5.5118Y-4.9882
X5.5118Y-5.0276
X5.5118Y-5.0669
X5.5118Y-6.1024
X5.5236Y-4.8858
X5.5276Y-4.3228
X5.5354Y-5.378
X5.5433Y-4.8622
X5.5512Y-4.4882
X5.5512Y-4.9882
X5.5512Y-5.0276
X5.5512Y-5.0669
X5.5512Y-5.3543
X5.5748Y-5.7559
X5.5906Y-4.7795
X5.5906Y-4.9882
X5.5906Y-5.0276
X5.5906Y-5.0669
X5.5984Y-4.3071
X5.5984Y-4.8189
X5.6061Y-5.3698
X5.6063Y-4.4882
X5.626Y-5.2598
X5.6498Y-4.6142
X5.6614Y-4.3071
X5.6614Y-4.4882
X5.6634Y-4.878
X5.6693Y-5.122
X5.6693Y-5.7559
X5.6829Y-4.7795
X5.6929Y-5.315
X5.7008Y-4.9449
X5.7008Y-5.063
X5.7087Y-4.4882
X5.7087Y-5.9055
X5.7165Y-5.7638
X5.7205Y-4.7795
X5.7244Y-4.3071
X5.7244Y-4.748
X5.7244Y-5.2441
X5.7362Y-4.6181
X5.7717Y-4.7008
X5.7795Y-4.3071
X5.7953Y-4.8629
X5.8099Y-4.6063
X5.8189Y-4.9449
X5.8268Y-4.6457
X5.8307Y-4.9961
X5.8307Y-5.063
X5.8346Y-5.1969
X5.8386Y-5.126
X5.8425Y-4.3071
X5.8425Y-4.748
X5.8504Y-4.6063
X5.8583Y-4.7953
X5.8661Y-5.1575
X5.8753Y-5.706
X5.8819Y-5.6674
X5.8909Y-4.6457
X5.8976Y-4.3071
X5.9055Y-6.1024
X5.9098Y-4.8189
X5.9134Y-4.5709
X5.9134Y-6.0118
X5.9213Y-4.6299
X5.9291Y-4.6063
X5.9528Y-5.1969
X5.9606Y-4.9291
X5.9606Y-5.0079
X5.9743Y-4.6466
X5.9843Y-3.4646
X5.9919Y-4.486
X5.9964Y-4.8504
X6.0039Y-4.622
X6.0042Y-5.1024
X6.0157Y-4.7638
X6.0159Y-4.486
X6.0405Y-4.4699
X6.083Y-4.8504
X6.0866Y-4.4803
X6.1024Y-4.7244
X6.1024Y-5.315
X6.1024Y-5.5118
X6.1024Y-6.1024
X6.1063Y-5.1024
X6.1145Y-5.0236
X6.1181Y-4.811
X6.1181Y-5.5827
X6.1181Y-5.6457
X6.126Y-4.4488
X6.1732Y-4.4803
X6.1732Y-4.5197
X6.1732Y-4.5591
X6.1732Y-4.811
X6.189Y-3.2756
X6.189Y-3.622
X6.2205Y-4.4803
X6.2205Y-4.5197
X6.2205Y-4.5591
X6.2283Y-5.4409
X6.2326Y-4.8661
X6.2598Y-5.4646
X6.2677Y-4.4488
X6.2717Y-5.935
X6.2835Y-5.1969
X6.2835Y-5.4961
X6.2992Y-4.6142
X6.2992Y-6.1024
X6.3071Y-5.4724
X6.3307Y-5.937
X6.3701Y-4.6142
X6.3775Y-5.7161
X6.3898Y-5.9331
X6.3976Y-4.1339
X6.4057Y-5.7462
X6.4331Y-4.6142
X6.4331Y-5.7165
X6.4508Y-5.935
X6.4646Y-5.748
X6.4869Y-5.7153
X6.4882Y-4.6142
X6.4961Y-6.1024
X6.5059Y-5.935
X6.5224Y-5.7419
X6.5499Y-5.7153
X6.5512Y-4.6142
X6.565Y-5.935
X6.5827Y-5.748
X6.5906Y-4.4882
X6.5945Y-3.937
X6.5984Y-5.4331
X6.5988Y-5.4071
X6.6299Y-5.4488
X6.6332Y-5.3826
X6.6457Y-4.4882
X6.6929Y-4.3858
X6.6929Y-6.1024
X6.7008Y-3.7638
X6.7008Y-4.6378
X6.7165Y-5.4016
X6.7165Y-5.4252
X6.7165Y-5.4488
X6.7244Y-3.2362
X6.7244Y-3.5984
X6.7323Y-4.7244
X6.7638Y-3.5669
X6.7717Y-4.6299
X6.8031Y-3.6535
X6.811Y-4.378
X6.811Y-5.1654
X6.8346Y-4.6299
X6.8346Y-4.7244
X6.8583Y-4.3425
X6.8898Y-3.6417
X6.8898Y-6.1024
X6.9291Y-3.9685
X6.9606Y-3.2598
X6.9843Y-4.1969
X6.9882Y-3.5433
X7.0157Y-4.1969
X7.0866Y-4.0
X7.0866Y-4.4567
X7.0866Y-6.1024
X7.0945Y-4.252
X7.1181Y-5.4567
X7.126Y-5.4016
X7.126Y-5.7874
X7.1339Y-4.4882
X7.1339Y-4.5276
X7.1339Y-4.5669
X7.185Y-3.3465
X7.185Y-3.5433
X7.185Y-3.7402
X7.185Y-3.937
X7.185Y-4.7244
X7.2047Y-5.7874
X7.2835Y-6.1024
X7.315Y-4.6063
X7.3819Y-3.3465
X7.3819Y-3.5433
X7.3819Y-3.7402
X7.3819Y-3.937
X7.3819Y-4.7244
X7.3819Y-4.9213
X7.3819Y-5.315
X7.3819Y-5.5118
X7.4252Y-4.4488
X7.4488Y-4.4173
X7.4724Y-4.7087
X7.4803Y-4.622
X7.4803Y-6.1024
X7.4961Y-4.6772
X7.5039Y-4.4882
X7.5118Y-4.0079
X7.5118Y-4.2205
X7.5197Y-4.622
X7.5433Y-4.5354
X7.5591Y-4.378
X7.563Y-5.6083
X7.6024Y-5.6398
X7.6457Y-4.5748
X7.6772Y-3.0512
X7.6772Y-3.3465
X7.6772Y-3.5433
X7.6772Y-3.7402
X7.6772Y-3.937
X7.6772Y-4.5276
X7.6772Y-4.7244
X7.6772Y-4.9213
X7.6772Y-5.1181
X7.6772Y-5.315
X7.6772Y-5.5118
X7.7083Y-4.3547
X7.8189Y-5.6339
X7.8622Y-4.2874
X7.874Y-3.0512
X7.874Y-4.1339
X7.9291Y-4.378
X7.937Y-4.4488
X7.937Y-4.4803
X7.937Y-4.5276
X7.937Y-4.6614
X7.9449Y-4.4094
X7.9449Y-4.5669
X7.9449Y-4.7008
X7.9528Y-4.6142
X7.9921Y-4.4567
X7.9921Y-4.5512
X8.0Y-4.6693
X8.0709Y-3.3465
X8.0709Y-3.5433
X8.0709Y-3.7402
X8.0709Y-3.937
X8.0709Y-4.1339
X8.0709Y-4.3307
X8.0709Y-4.5276
X8.0709Y-4.7244
X8.0709Y-4.9213
X8.0709Y-5.1181
X8.0709Y-5.315
X8.0709Y-5.5118
X8.0709Y-6.1024
T2
X4.6988Y-5.9646
X4.6988Y-6.0177
X4.7323Y-5.9646
X4.7323Y-6.0177
X4.7657Y-5.9646
X4.7657Y-6.0177
X4.7992Y-5.9646
X4.7992Y-6.0177
X4.8327Y-5.9646
X4.8327Y-6.0177
X4.8661Y-5.9646
X4.8661Y-6.0177
X4.8996Y-5.9646
X4.8996Y-6.0177
X4.9331Y-5.9646
X4.9331Y-6.0177
T4
X5.408Y-5.6665
X5.458Y-5.5665
X5.508Y-5.6665
X5.558Y-5.5665
X5.608Y-5.6665
X5.658Y-5.5665
X5.708Y-5.6665
X5.758Y-5.5665
T6
X7.0276Y-5.7194
X7.126Y-5.7194
X7.2047Y-5.7194
X7.3031Y-5.7194
T7
X4.875Y-4.1102
X4.875Y-4.2102
X4.875Y-4.3102
X4.875Y-4.4102
X4.875Y-4.5102
X4.875Y-4.6102
X5.1846Y-3.0398
X5.1846Y-3.1398
X5.2846Y-3.0398
X5.2846Y-3.1398
X5.3846Y-3.0398
X5.3846Y-3.1398
X5.4846Y-3.0398
X5.4846Y-3.1398
X5.5846Y-3.0398
X5.5846Y-3.1398
X5.6846Y-3.0398
X5.6846Y-3.1398
X5.7846Y-3.0398
X5.7846Y-3.1398
X5.8846Y-3.0398
X5.8846Y-3.1398
X5.9846Y-3.0398
X5.9846Y-3.1398
X6.0846Y-3.0398
X6.0846Y-3.1398
X6.1846Y-3.0398
X6.1846Y-3.1398
X6.2846Y-3.0398
X6.2846Y-3.1398
X6.3846Y-3.0398
X6.3846Y-3.1398
X6.4846Y-3.0398
X6.4846Y-3.1398
X6.5846Y-3.0398
X6.5846Y-3.1398
X6.6846Y-3.0398
X6.6846Y-3.1398
X6.7846Y-3.0398
X6.7846Y-3.1398
X6.8846Y-3.0398
X6.8846Y-3.1398
X6.9846Y-3.0398
X6.9846Y-3.1398
X7.0846Y-3.0398
X7.0846Y-3.1398
T8
X5.3223Y-6.1094
X5.4223Y-6.1094
X5.744Y-6.1094
X5.844Y-6.1094
T9
X7.7342Y-5.7894
X7.7342Y-6.0531
X7.9822Y-5.9154
X7.9822Y-6.0531
X7.9824Y-5.7894
T10
X5.2782Y-5.7965
X5.8881Y-5.7965
T11
X6.9067Y-5.8261
X7.424Y-5.8261
T12
X6.2008Y-3.437
T3
G00X4.6476Y-5.9705
M15
G01X4.6476Y-6.0295
M16
G05
G00X4.6476Y-6.1181
M15
G01X4.6476Y-6.1496
M16
G05
G00X4.9882Y-5.9705
M15
G01X4.9882Y-6.0295
M16
G05
G00X4.9882Y-6.1181
M15
G01X4.9882Y-6.1496
M16
G05
T5
G00X6.1122Y-5.8504
M15
G01X6.1122Y-5.9213
M16
G05
G00X6.1122Y-6.1063
M15
G01X6.1122Y-6.1378
M16
G05
G00X6.6831Y-5.8504
M15
G01X6.6831Y-5.9213
M16
G05
G00X6.6831Y-6.1063
M15
G01X6.6831Y-6.1378
M16
G05
T0
M30
